<svg width="171" height="171" viewBox="0 0 171 171" fill="none" xmlns="http://www.w3.org/2000/svg">
<g filter="url(#filter0_d)">
<circle cx="81.5" cy="81.5" r="81.5" fill="white"/>
</g>
<path d="M41.3691 50.3692C41.3691 50.3692 49.5614 44.3615 55.023 50.3692C60.4845 56.3769 62.4618 68.8412 67.2283 84.1769H109.828C109.828 84.1769 124.931 54.7385 125.121 49.2231M113.651 101.108H73.2359C73.2359 101.108 63.4051 101.982 63.4051 92.3693C63.4051 82.757 63.4051 75.5172 63.4051 71.8762" stroke="#009688" stroke-width="6"/>
<circle cx="40.8231" cy="49.8231" r="3.82308" fill="#C4C4C4"/>
<circle cx="73.5922" cy="110.992" r="6.00769" fill="#685959"/>
<circle cx="73.5921" cy="110.992" r="2.73077" fill="#C4C4C4"/>
<circle cx="105.269" cy="110.992" r="6.00769" fill="#685959"/>
<circle cx="105.269" cy="110.992" r="2.73077" fill="#C4C4C4"/>
<path d="M90.6074 72.8669C83.6109 66.6477 76.8087 70.5347 74.2821 70.9234C71.7556 71.3121 71.3669 69.1742 71.1726 68.5912C70.9987 68.0697 70.3952 63.3438 71.5613 60.2342C72.7273 57.1246 76.8087 54.2094 79.7239 52.0716C82.6391 49.9338 86.1374 48.1846 93.5226 48.1846C99.4308 48.1846 104.795 54.5981 105.378 56.1529C105.961 57.7077 105.961 66.8421 105.378 68.5912C104.795 70.3403 102.268 72.8669 102.268 72.8669C99.9361 74.2921 94.3389 76.2874 90.6074 72.8669Z" fill="#5D4037"/>
<path d="M80.6959 54.5981C78.0527 56.1529 74.5415 60.1695 73.1163 61.9834C73.1163 61.9834 72.3389 62.5664 72.3389 64.8986C72.3389 67.2308 74.0232 67.166 74.8654 66.8421C74.8654 66.8421 77.5863 65.4816 78.558 65.4816H83.028C85.2047 65.6371 92.7455 71.1177 93.5228 71.5064C94.3002 71.8951 95.855 71.7008 97.4098 71.5064C99.1069 71.2943 101.232 68.3969 102.074 66.8421C103.305 64.9634 105.145 60.3508 102.657 56.9303C99.5477 52.6546 95.272 51.2942 91.7737 51.2942C88.2754 51.2942 83.9998 52.6546 80.6959 54.5981Z" fill="#FFCDD2"/>
<path d="M84.4478 54.9429C82.4272 55.9342 79.6363 58.6766 78.4935 59.9239C78.4935 59.9239 77.8923 60.3073 77.765 62.0113C77.6377 63.7152 78.8748 63.7601 79.5092 63.5695C79.5092 63.5695 81.5762 62.7245 82.2879 62.7777L85.5616 63.0223C87.1472 63.255 92.3706 67.672 92.9187 67.9986C93.4668 68.3251 94.6161 68.2682 95.7654 68.2113C97.0198 68.1492 98.7344 66.1486 99.4361 65.0587C100.44 63.7534 102.039 60.4841 100.404 57.8488C98.3604 54.5547 95.3033 53.3267 92.7413 53.1353C90.1793 52.9438 86.9736 53.7038 84.4478 54.9429Z" fill="#EF9A9A"/>
<circle cx="86.7203" cy="56.3473" r="1.55479" fill="#1F1B1B"/>
<circle cx="93.7174" cy="56.3473" r="1.55479" fill="#1F1B1B"/>
<circle cx="86.7208" cy="55.9586" r="0.777394" fill="#FFFDFD"/>
<circle cx="93.7178" cy="55.9586" r="0.777394" fill="#FFFDFD"/>
<circle cx="96.6324" cy="60.0399" r="1.36044" fill="#E57373"/>
<circle cx="83.8053" cy="60.0399" r="1.36044" fill="#E57373"/>
<path d="M86.7207 61.4003C89.7806 63.0642 91.5467 63.059 94.4946 61.4003" stroke="black"/>
<defs>
<filter id="filter0_d" x="0" y="0" width="171" height="171" filterUnits="userSpaceOnUse" color-interpolation-filters="sRGB">
<feFlood flood-opacity="0" result="BackgroundImageFix"/>
<feColorMatrix in="SourceAlpha" type="matrix" values="0 0 0 0 0 0 0 0 0 0 0 0 0 0 0 0 0 0 127 0"/>
<feOffset dx="4" dy="4"/>
<feGaussianBlur stdDeviation="2"/>
<feColorMatrix type="matrix" values="0 0 0 0 0 0 0 0 0 0 0 0 0 0 0 0 0 0 0.25 0"/>
<feBlend mode="normal" in2="BackgroundImageFix" result="effect1_dropShadow"/>
<feBlend mode="normal" in="SourceGraphic" in2="effect1_dropShadow" result="shape"/>
</filter>
</defs>
</svg>
